# Blender v2.78 (sub 0) OBJ File: '5.blend'
# www.blender.org
mtllib Monitor_01.mtl
o Monitor_01_Cube.042
v -6.535053 2.001792 0.218795
v -6.535053 9.919053 0.218795
v -6.535053 2.001792 -0.218795
v -6.535053 9.919053 -0.218795
v 6.535053 2.001792 0.218795
v 6.535053 9.919053 0.218795
v 6.535053 2.001792 -0.218795
v 6.535053 9.919053 -0.218795
v -6.287611 2.263736 0.218795
v -6.287611 9.657109 0.218795
v 6.287611 9.657109 0.218795
v 6.287611 2.263736 0.218795
v -6.287611 2.263736 0.166790
v -6.287611 9.657109 0.166790
v 6.287611 9.657109 0.166790
v 6.287611 2.263736 0.166790
v -0.770984 3.319668 -0.218795
v -0.770984 2.385615 -0.218795
v 0.770984 2.385615 -0.218795
v 0.770984 3.319668 -0.218795
v -0.770984 3.319668 -0.361435
v -0.770984 2.385615 -0.361435
v 0.770984 2.385615 -0.361435
v 0.770984 3.319668 -0.361435
v -0.770984 2.718141 -1.233196
v -0.770984 2.385615 -1.233196
v 0.770984 2.385615 -1.233196
v 0.770984 2.718141 -1.233196
v 2.627970 0.265589 0.688422
v -2.627970 0.265589 0.688422
v 2.627970 0.265589 -2.283053
v -2.627970 0.265589 -2.283053
v 2.627970 0.133775 0.688422
v -2.627970 0.133775 0.688422
v 2.627970 0.133775 -2.283053
v -2.627970 0.133775 -2.283053
v 1.606118 0.373185 0.110712
v 0.770984 1.077219 -0.361435
v 1.015589 0.579392 -0.223146
v -0.770984 1.077219 -0.361435
v -1.606117 0.373185 0.110712
v -1.015589 0.579392 -0.223146
v 0.770984 1.077219 -1.233196
v 1.606118 0.373185 -1.705343
v 1.015589 0.579392 -1.371485
v -1.606117 0.373185 -1.705343
v -0.770984 1.077219 -1.233196
v -1.015589 0.579392 -1.371485
v 0.770984 2.385615 -0.797316
v 0.770984 3.232338 -0.797316
v -0.770984 2.385615 -0.797316
v -0.770984 3.232338 -0.797316
v 3.101004 0.265589 -0.797315
v -3.101004 0.265589 -0.797315
v 3.101004 0.133775 -0.797315
v -3.101004 0.133775 -0.797315
v 1.606118 0.373185 -0.797316
v 1.015589 0.579392 -0.797316
v 0.770984 1.077219 -0.797316
v -0.770984 1.077219 -0.797316
v -1.015589 0.579392 -0.797316
v -1.606117 0.373185 -0.797316
vn -1.0000 0.0000 0.0000
vn 0.0000 0.0000 -1.0000
vn 1.0000 0.0000 0.0000
vn 0.0000 0.0000 1.0000
vn 0.0000 -1.0000 0.0000
vn 0.0000 1.0000 0.0000
vn 0.0000 0.9831 -0.1831
vn 0.0000 0.6466 -0.7628
vn -0.0815 0.9965 -0.0161
vn 0.0815 0.9965 0.0161
vn -0.9529 0.0000 -0.3034
vn 0.9529 0.0000 0.3034
vn 0.0000 0.2676 0.9635
vn 0.0000 0.8508 0.5255
vn 0.0000 0.8508 -0.5255
vn 0.0000 0.2677 -0.9635
vn 0.3297 0.9441 0.0000
vn 0.8975 0.4410 0.0000
vn -0.8975 0.4410 0.0000
vn -0.3297 0.9441 0.0000
vn 0.0000 0.9831 0.1831
vn 0.9529 0.0000 -0.3034
vn -0.9529 0.0000 0.3034
vn 0.0815 0.9965 -0.0161
vn -0.0815 0.9965 0.0161
vn 0.0000 0.9805 -0.1964
usemtl 1A1A1A
s off
f 1//1 2//1 4//1 3//1
f 8//2 7//2 19//2 20//2
f 7//3 8//3 6//3 5//3
f 2//4 1//4 9//4 10//4
f 3//5 7//5 5//5 1//5
f 8//6 4//6 2//6 6//6
f 10//3 9//3 13//3 14//3
f 1//4 5//4 12//4 9//4
f 6//4 2//4 10//4 11//4
f 5//4 6//4 11//4 12//4
f 11//5 10//5 14//5 15//5
f 12//1 11//1 15//1 16//1
f 9//6 12//6 16//6 13//6
f 17//6 20//6 24//6 21//6
f 7//2 3//2 18//2 19//2
f 4//2 8//2 20//2 17//2
f 3//2 4//2 17//2 18//2
f 50//3 49//3 27//3 28//3
f 18//1 17//1 21//1 22//1
f 20//3 19//3 23//3 24//3
f 19//5 18//5 22//5 23//5
f 26//2 25//2 28//2 27//2
f 46//7 44//7 31//7 32//7
f 52//8 50//8 28//8 25//8
f 51//1 52//1 25//1 26//1
f 62//9 46//9 32//9 54//9
f 26//2 27//2 43//2 47//2
f 57//10 37//10 29//10 53//10
f 23//4 22//4 40//4 38//4
f 54//11 32//11 36//11 56//11
f 49//3 23//3 38//3 59//3
f 51//1 26//1 47//1 60//1
f 55//5 56//5 36//5 35//5
f 32//2 31//2 35//2 36//2
f 53//12 29//12 33//12 55//12
f 29//4 30//4 34//4 33//4
f 38//13 40//13 42//13 39//13
f 39//14 42//14 41//14 37//14
f 44//15 46//15 48//15 45//15
f 45//16 48//16 47//16 43//16
f 57//17 44//17 45//17 58//17
f 58//18 45//18 43//18 59//18
f 60//19 47//19 48//19 61//19
f 61//20 48//20 46//20 62//20
f 37//21 41//21 30//21 29//21
f 42//20 61//20 62//20 41//20
f 40//19 60//19 61//19 42//19
f 39//18 58//18 59//18 38//18
f 37//17 57//17 58//17 39//17
f 31//22 53//22 55//22 35//22
f 33//5 34//5 56//5 55//5
f 22//1 51//1 60//1 40//1
f 27//3 49//3 59//3 43//3
f 30//23 54//23 56//23 34//23
f 44//24 57//24 53//24 31//24
f 41//25 62//25 54//25 30//25
f 22//1 21//1 52//1 51//1
f 21//26 24//26 50//26 52//26
f 24//3 23//3 49//3 50//3
usemtl 039BE5
f 15//4 13//4 16//4
usemtl FF9800
f 15//4 14//4 13//4
